[Header]                  # Header keywords are followed by a single value
FileType htr              # single word string
DataType HTRS             # Hierarchical translations followed by rotations and Scale
FileVersion 1             # integer
NumSegments   22        # integer
NumFrames  5          # integer
DataFrameRate    60      # integer
EulerRotationOrder ZYX    # one word string
CalibrationUnits mm   # one word string
RotationUnits Degrees     # one word string
GlobalAxisofGravity Y        # character, X or Y or Z
BoneLengthAxis Y
ScaleFactor 1.0000
[SegmentNames&Hierarchy]
#CHILD         PARENT
LowerTorso	GLOBAL
MidTorso1	LowerTorso
MidTorso2	MidTorso1
UpperTorso	MidTorso2
Neck	UpperTorso
Head	Neck
LCollar	UpperTorso
LUpArm	LCollar
LLowArm	LUpArm
LHand	LLowArm
RCollar	UpperTorso
RUpArm	RCollar
RLowArm	RUpArm
RHand	RLowArm
RThigh	LowerTorso
RLowLeg	RThigh
RFoot	RLowLeg
RToe	RFoot
LThigh	LowerTorso
LLowLeg	LThigh
LFoot	LLowLeg
LToe	LFoot
[BasePosition]
#SegmentName Tx, Ty, Tz, Rx, Ry, Rz, BoneLength
LowerTorso	245.857281	950.546486	248.637529	3.098927	-0.002210	0.042162	59.711333	
MidTorso1	0.000000	59.711333	0.000000	12.937915	-0.002675	-0.030860	59.789096	
MidTorso2	0.000000	59.789096	0.000000	-8.588562	0.003459	0.011437	83.428957	
UpperTorso	0.000000	83.428957	0.000000	-7.932331	-0.001012	-0.030752	241.957510	
Neck	0.000000	241.957510	0.000000	-0.094097	0.000027	0.097203	231.829248	
Head	0.000000	231.829248	0.000000	90.077927	-0.000108	-0.089730	91.574582	
LCollar	6.813599	237.360039	0.023153	2.387721	-0.015547	-90.013255	183.371476	
LUpArm	0.000000	183.371476	0.000000	5.326590	-0.698152	6.338799	275.550262	
LLowArm	0.000000	275.550262	0.000000	0.023606	-0.000027	0.019344	209.826044	
LHand	0.000000	209.826044	0.000000	0.056212	0.000012	-0.012212	145.298309	
RCollar	-7.320367	237.102711	-0.039007	12.450709	0.004248	90.115141	167.861514	
RUpArm	0.000000	167.861514	0.000000	-6.122028	-0.820027	-2.646363	291.470253	
RLowArm	0.000000	291.470253	0.000000	0.000001	0.000000	-0.000274	217.757286	
RHand	0.000000	217.757286	0.000000	0.000373	0.000000	0.000511	137.536656	
RThigh	-124.450736	-52.205152	84.621319	5.924306	0.309605	177.207098	421.029795	
RLowLeg	0.000000	421.029795	0.000000	-15.759515	-0.017515	3.120486	365.105663	
RFoot	0.000000	365.105663	0.000000	55.897303	0.149984	-4.373210	148.323736	
RToe	0.000000	148.323736	0.000000	45.100933	2.167436	3.449341	115.306227	
LThigh	124.374466	-52.388373	84.621456	5.928259	-0.221338	-178.140447	426.796764	
LLowLeg	0.000000	426.796764	0.000000	-15.759694	0.017551	-3.120303	361.153822	
LFoot	0.000000	361.153822	0.000000	55.897848	-0.150027	4.373120	146.718976	
LToe	0.000000	146.718976	0.000000	45.100748	-2.167253	-3.449489	114.060784	
#Beginning of Data. Separated by tabs
[LowerTorso]
#Fr     Tx      Ty      Tz      Rx      Ry      Rz      SF
286	-108.611153	-13.398898	350.447754	-0.497587	2.307354	-0.636125	1.000000	
287	-105.913818	-14.610940	358.425018	-0.447484	1.791023	-0.983058	1.000000	
288	-102.565491	-15.338891	366.305756	-0.392670	1.219130	-1.221608	1.000000	
289	-98.604736	-15.395083	374.014130	-0.314797	0.598465	-1.316428	1.000000	
290	-94.125771	-14.676159	381.516968	-0.165887	-0.069214	-1.275455	1.000000	
[MidTorso1]
#Fr     Tx      Ty      Tz      Rx      Ry      Rz      SF
286	0.000000	0.000000	0.000000	3.211704	0.411976	-0.234651	1.000000	
287	0.000000	0.000000	0.000000	3.229315	0.369021	-0.276894	1.000000	
288	0.000000	0.000000	0.000000	3.277923	0.322981	-0.349229	1.000000	
289	0.000000	0.000000	0.000000	3.352270	0.265941	-0.466140	1.000000	
290	0.000000	0.000000	0.000000	3.427710	0.202702	-0.626914	1.000000	
[MidTorso2]
#Fr     Tx      Ty      Tz      Rx      Ry      Rz      SF
286	0.000000	0.000000	0.000000	3.211986	0.441733	-0.170418	1.000000	
287	0.000000	0.000000	0.000000	3.229522	0.405564	-0.218602	1.000000	
288	0.000000	0.000000	0.000000	3.278030	0.370833	-0.297001	1.000000	
289	0.000000	0.000000	0.000000	3.352211	0.331877	-0.421119	1.000000	
290	0.000000	0.000000	0.000000	3.427385	0.293339	-0.589533	1.000000	
[UpperTorso]
#Fr     Tx      Ty      Tz      Rx      Ry      Rz      SF
286	0.000000	0.000000	0.000000	3.211971	0.462734	-0.107596	1.000000	
287	0.000000	0.000000	0.000000	3.229471	0.433570	-0.160310	1.000000	
288	0.000000	0.000000	0.000000	3.277923	0.410016	-0.242748	1.000000	
289	0.000000	0.000000	0.000000	3.351993	0.388600	-0.371048	1.000000	
290	0.000000	0.000000	0.000000	3.426964	0.373712	-0.543164	1.000000	
[Neck]
#Fr     Tx      Ty      Tz      Rx      Ry      Rz      SF
286	0.000000	0.000000	0.000000	-4.996500	-6.150084	4.430513	1.000000	
287	0.000000	0.000000	0.000000	-5.502881	-5.999484	5.095043	1.000000	
288	0.000000	0.000000	0.000000	-6.064054	-5.864145	5.622580	1.000000	
289	0.000000	0.000000	0.000000	-6.665228	-5.688604	6.019328	1.000000	
290	0.000000	0.000000	0.000000	-7.270602	-5.465745	6.280770	1.000000	
[Head]
#Fr     Tx      Ty      Tz      Rx      Ry      Rz      SF
286	0.000000	0.000000	0.000000	-3.833338	-0.655072	-0.153130	1.000000	
287	0.000000	0.000000	0.000000	-3.599411	-0.405492	-0.131202	1.000000	
288	0.000000	0.000000	0.000000	-3.326904	-0.075338	-0.098196	1.000000	
289	0.000000	0.000000	0.000000	-3.008396	0.303132	-0.053985	1.000000	
290	0.000000	0.000000	0.000000	-2.678101	0.666361	-0.005640	1.000000	
[LCollar]
#Fr     Tx      Ty      Tz      Rx      Ry      Rz      SF
286	0.000000	0.000000	0.000000	4.033091	1.429151	-19.479553	1.000000	
287	0.000000	0.000000	0.000000	4.133452	1.471738	-19.564270	1.000000	
288	0.000000	0.000000	0.000000	4.300915	1.548588	-19.764559	1.000000	
289	0.000000	0.000000	0.000000	4.550653	1.656121	-19.955906	1.000000	
290	0.000000	0.000000	0.000000	4.892896	1.789094	-20.036325	1.000000	
[LUpArm]
#Fr     Tx      Ty      Tz      Rx      Ry      Rz      SF
286	0.000000	0.000000	0.000000	-12.883749	34.872883	-61.871704	1.000000	
287	0.000000	0.000000	0.000000	-12.687037	35.214844	-61.448696	1.000000	
288	0.000000	0.000000	0.000000	-12.300756	35.777802	-60.784760	1.000000	
289	0.000000	0.000000	0.000000	-11.733677	36.589161	-60.020367	1.000000	
290	0.000000	0.000000	0.000000	-11.047115	37.577152	-59.283012	1.000000	
[LLowArm]
#Fr     Tx      Ty      Tz      Rx      Ry      Rz      SF
286	0.000000	0.000000	0.000000	35.124504	-0.007079	-0.002263	1.000000	
287	0.000000	0.000000	0.000000	35.240910	-0.007099	-0.002278	1.000000	
288	0.000000	0.000000	0.000000	35.114594	-0.007077	-0.002262	1.000000	
289	0.000000	0.000000	0.000000	34.695824	-0.007003	-0.002210	1.000000	
290	0.000000	0.000000	0.000000	34.091087	-0.006896	-0.002137	1.000000	
[LHand]
#Fr     Tx      Ty      Tz      Rx      Ry      Rz      SF
286	0.000000	0.000000	0.000000	2.978452	3.223170	-12.857093	1.000000	
287	0.000000	0.000000	0.000000	3.239836	3.559822	-12.797881	1.000000	
288	0.000000	0.000000	0.000000	3.881705	3.449577	-12.511839	1.000000	
289	0.000000	0.000000	0.000000	4.921669	2.911185	-11.872856	1.000000	
290	0.000000	0.000000	0.000000	6.098820	2.001653	-10.928488	1.000000	
[RCollar]
#Fr     Tx      Ty      Tz      Rx      Ry      Rz      SF
286	0.000000	0.000000	0.000000	-2.227119	0.540378	13.630908	1.000000	
287	0.000000	0.000000	0.000000	-1.745766	0.445084	14.297520	1.000000	
288	0.000000	0.000000	0.000000	-1.111947	0.298862	15.040483	1.000000	
289	0.000000	0.000000	0.000000	-0.391618	0.110354	15.731779	1.000000	
290	0.000000	0.000000	0.000000	0.329896	-0.095921	16.219030	1.000000	
[RUpArm]
#Fr     Tx      Ty      Tz      Rx      Ry      Rz      SF
286	0.000000	0.000000	0.000000	17.824514	-37.601540	34.315132	1.000000	
287	0.000000	0.000000	0.000000	16.397516	-37.246941	34.942150	1.000000	
288	0.000000	0.000000	0.000000	14.704276	-36.611729	35.706875	1.000000	
289	0.000000	0.000000	0.000000	12.981221	-35.811607	36.660992	1.000000	
290	0.000000	0.000000	0.000000	11.388672	-35.018818	37.903629	1.000000	
[RLowArm]
#Fr     Tx      Ty      Tz      Rx      Ry      Rz      SF
286	0.000000	0.000000	0.000000	42.070560	0.000113	0.000028	1.000000	
287	0.000000	0.000000	0.000000	42.628670	0.000115	0.000029	1.000000	
288	0.000000	0.000000	0.000000	43.102875	0.000116	0.000030	1.000000	
289	0.000000	0.000000	0.000000	43.217278	0.000116	0.000030	1.000000	
290	0.000000	0.000000	0.000000	42.756458	0.000115	0.000030	1.000000	
[RHand]
#Fr     Tx      Ty      Tz      Rx      Ry      Rz      SF
286	0.000000	0.000000	0.000000	-2.055370	11.156257	-2.627183	1.000000	
287	0.000000	0.000000	0.000000	-1.939519	9.946848	-2.998035	1.000000	
288	0.000000	0.000000	0.000000	-1.854860	8.695282	-3.359310	1.000000	
289	0.000000	0.000000	0.000000	-1.780823	7.532506	-3.690956	1.000000	
290	0.000000	0.000000	0.000000	-1.666840	6.672152	-4.003102	1.000000	
[RThigh]
#Fr     Tx      Ty      Tz      Rx      Ry      Rz      SF
286	0.000000	0.000000	0.000000	-8.657756	11.439927	5.298979	1.000000	
287	0.000000	0.000000	0.000000	-8.788795	11.132506	5.474977	1.000000	
288	0.000000	0.000000	0.000000	-8.758082	10.825233	5.495026	1.000000	
289	0.000000	0.000000	0.000000	-8.506659	10.489065	5.332144	1.000000	
290	0.000000	0.000000	0.000000	-7.951947	10.083641	5.015192	1.000000	
[RLowLeg]
#Fr     Tx      Ty      Tz      Rx      Ry      Rz      SF
286	0.000000	0.000000	0.000000	3.497599	-0.000003	0.000000	1.000000	
287	0.000000	0.000000	0.000000	2.816566	-0.000002	0.000000	1.000000	
288	0.000000	0.000000	0.000000	1.857948	-0.000001	0.000000	1.000000	
289	0.000000	0.000000	0.000000	0.571724	0.000000	0.000000	1.000000	
290	0.000000	0.000000	0.000000	-1.072757	0.000001	0.000000	1.000000	
[RFoot]
#Fr     Tx      Ty      Tz      Rx      Ry      Rz      SF
286	0.000000	0.000000	0.000000	4.867506	1.844966	-4.574447	1.000000	
287	0.000000	0.000000	0.000000	5.363431	2.226799	-4.253084	1.000000	
288	0.000000	0.000000	0.000000	5.793802	2.633563	-3.884348	1.000000	
289	0.000000	0.000000	0.000000	6.111779	3.055213	-3.492440	1.000000	
290	0.000000	0.000000	0.000000	6.280707	3.511913	-3.080621	1.000000	
[RToe]
#Fr     Tx      Ty      Tz      Rx      Ry      Rz      SF
286	0.000000	0.000000	0.000000	2.072883	0.000001	0.000001	1.000000	
287	0.000000	0.000000	0.000000	2.094071	0.000001	0.000001	1.000000	
288	0.000000	0.000000	0.000000	2.197987	0.000001	0.000001	1.000000	
289	0.000000	0.000000	0.000000	2.395906	0.000001	0.000001	1.000000	
290	0.000000	0.000000	0.000000	2.667637	0.000001	0.000001	1.000000	
[LThigh]
#Fr     Tx      Ty      Tz      Rx      Ry      Rz      SF
286	0.000000	0.000000	0.000000	16.878122	-18.093618	-0.154345	1.000000	
287	0.000000	0.000000	0.000000	16.850340	-19.043083	-0.002357	1.000000	
288	0.000000	0.000000	0.000000	16.674713	-19.297203	0.125106	1.000000	
289	0.000000	0.000000	0.000000	16.393072	-18.784912	0.179558	1.000000	
290	0.000000	0.000000	0.000000	16.069376	-17.737564	0.113748	1.000000	
[LLowLeg]
#Fr     Tx      Ty      Tz      Rx      Ry      Rz      SF
286	0.000000	0.000000	0.000000	-9.338715	0.000004	0.000000	1.000000	
287	0.000000	0.000000	0.000000	-10.071039	0.000005	0.000000	1.000000	
288	0.000000	0.000000	0.000000	-10.627222	0.000005	-0.000001	1.000000	
289	0.000000	0.000000	0.000000	-10.971034	0.000005	-0.000001	1.000000	
290	0.000000	0.000000	0.000000	-11.091475	0.000005	-0.000001	1.000000	
[LFoot]
#Fr     Tx      Ty      Tz      Rx      Ry      Rz      SF
286	0.000000	0.000000	0.000000	-5.795457	-5.070815	-1.907697	1.000000	
287	0.000000	0.000000	0.000000	-5.740110	-2.943850	-1.364079	1.000000	
288	0.000000	0.000000	0.000000	-5.781747	-1.301929	-0.019663	1.000000	
289	0.000000	0.000000	0.000000	-5.915970	-0.784997	1.881893	1.000000	
290	0.000000	0.000000	0.000000	-6.116376	-1.299912	3.969051	1.000000	
[LToe]
#Fr     Tx      Ty      Tz      Rx      Ry      Rz      SF
286	0.000000	0.000000	0.000000	1.329255	0.000005	0.000000	1.000000	
287	0.000000	0.000000	0.000000	1.118414	0.000004	0.000000	1.000000	
288	0.000000	0.000000	0.000000	0.913205	0.000004	0.000000	1.000000	
289	0.000000	0.000000	0.000000	0.869940	0.000003	0.000000	1.000000	
290	0.000000	0.000000	0.000000	1.032924	0.000004	0.000000	1.000000	
[EndOfFile]
